<svg xmlns="http://www.w3.org/2000/svg" viewBox="0 0 800 600" fill="none">
  <defs>
    <linearGradient id="bg" x1="0" y1="0" x2="1" y2="1">
      <stop offset="0%" stop-color="#fdf2f8"/>
      <stop offset="50%" stop-color="#fce7f3"/>
      <stop offset="100%" stop-color="#ede9fe"/>
    </linearGradient>
    <linearGradient id="circle1" x1="0" y1="0" x2="1" y2="1">
      <stop offset="0%" stop-color="#ec4899"/>
      <stop offset="100%" stop-color="#8b5cf6"/>
    </linearGradient>
    <linearGradient id="circle2" x1="0" y1="0" x2="1" y2="1">
      <stop offset="0%" stop-color="#f472b6"/>
      <stop offset="100%" stop-color="#a78bfa"/>
    </linearGradient>
  </defs>
  <rect width="800" height="600" fill="url(#bg)" rx="16"/>
  <circle cx="200" cy="200" r="120" fill="url(#circle1)" opacity="0.15"/>
  <circle cx="600" cy="400" r="160" fill="url(#circle2)" opacity="0.12"/>
  <circle cx="400" cy="300" r="80" fill="#ec4899" opacity="0.08"/>
  <g transform="translate(400,260)">
    <path d="M-80 80 Q-40-40 0-60 Q40-40 80 80 Q40 100-40 100Z" fill="#ec4899" opacity="0.2"/>
    <path d="M-60 100 Q-30 20 0 0 Q30 20 60 100 Q30 120-30 120Z" fill="#8b5cf6" opacity="0.15"/>
  </g>
  <g transform="translate(400,240)" opacity="0.6">
    <path d="M0-80 L15-30 L60-30 L25 5 L40 50 L0 25 L-40 50 L-25 5 L-60-30 L-15-30Z" fill="#ec4899" opacity="0.6"/>
  </g>
  <g transform="translate(400,360)" opacity="0.5">
    <path d="M0-40 C20-30 40-10 40 10 C40 35 20 50 0 60 C-20 50-40 35-40 10 C-40-10-20-30 0-40Z" fill="#8b5cf6" opacity="0.4"/>
  </g>
  <text x="400" y="520" text-anchor="middle" font-family="system-ui,sans-serif" font-size="28" font-weight="bold" fill="#db2777">JENNIE KIM</text>
  <text x="400" y="555" text-anchor="middle" font-family="system-ui,sans-serif" font-size="14" fill="#6b7280">Exclusive Fan Community</text>
</svg>
